<svg width="1em" height="1em" viewBox="0 0 20 11" fill="none" xmlns="http://www.w3.org/2000/svg">
  <title>Chevron Down</title>
  <path d="M10.0002 11.0002C9.86858 11.0009 9.73812 10.9757 9.61628 10.926C9.49444 10.8762 9.38363 10.8029 9.29019 10.7102L1.29019 2.71019C1.19695 2.61695 1.12299 2.50626 1.07253 2.38443C1.02207 2.26261 0.996094 2.13204 0.996094 2.00019C0.996094 1.73388 1.10188 1.47849 1.29019 1.29018C1.47849 1.10188 1.73388 0.996094 2.00019 0.996094C2.26649 0.996094 2.52188 1.10188 2.71019 1.29018L10.0002 8.59019L17.2902 1.29018C17.4785 1.10188 17.7339 0.996094 18.0002 0.996094C18.2665 0.996094 18.5219 1.10188 18.7102 1.29018C18.8985 1.47849 19.0043 1.73388 19.0043 2.00019C19.0043 2.26649 18.8985 2.52188 18.7102 2.71019L10.7102 10.7102C10.6167 10.8029 10.5059 10.8762 10.3841 10.926C10.2623 10.9757 10.1318 11.0009 10.0002 11.0002Z" fill="currentColor"/>
</svg>
