<svg width="1140" height="415" viewBox="0 0 1140 415" fill="none" xmlns="http://www.w3.org/2000/svg">
<path d="M1104.9 175.66C1123.3 175.237 1136.34 169.621 1139.53 152.134C1141.42 141.724 1135.32 135.071 1123.48 134.538C1123.48 134.538 1089.15 132.727 1049.61 130.981C1049.61 130.981 990.82 128.567 974.418 128.232C959.747 127.882 945.509 127.762 935.604 127.938C926.376 128.103 922.033 132.821 920.14 140.427C918.249 148.033 916.703 158.835 916.08 170.06C915.606 178.577 924.87 182.604 934.422 182.255C934.422 182.255 946.159 181.722 964.519 180.84C985.323 180.064 1041.94 177.539 1041.94 177.539C1061.81 176.822 1083.9 176.142 1104.9 175.66Z" fill="#231F1F"/>
<path d="M1049.61 130.981C1049.61 130.981 1057.61 87.1046 1061.52 69.2265C1063.44 60.4506 1058.81 51.7688 1047.75 49.0845C1036.76 46.4209 1011.52 46.2445 1003.05 47.1941C995.977 47.985 989.1 52.2157 987.504 59.5539C983.517 77.8965 979.363 99.9611 974.418 128.232C971.819 141.315 966.821 164.815 964.519 180.84C961.115 196.911 954.605 240.046 951.742 266.818C948.32 298.817 946.321 317.815 948.57 345.195C955.055 394.796 980.945 414.406 1023.06 414.406C1061.72 414.406 1098.93 389.895 1125.27 345.531C1130.53 336.681 1134.36 328.943 1131.03 325.104C1123.37 316.307 1108.78 311.741 1104.8 319.041C1087.42 350.846 1068.75 363.659 1048.43 363.659C1032.35 363.659 1019.34 354.101 1019.34 326.203C1019.34 286.06 1041.94 177.539 1041.94 177.539C1044.82 165.314 1047.82 148.315 1049.61 130.981Z" fill="#231F1F"/>
<path d="M964.519 180.84C961.115 196.911 954.32 240.017 951.742 266.818C935.163 322.537 900.736 363.661 871.095 363.661C852.937 363.661 842.109 352.883 842.109 320.188C842.109 274.938 852.505 217.711 867.664 160.355C877.819 107.817 888.82 56.3168 891.354 28.2545C892.23 18.5408 898.381 5.08736 886.691 2.76475C865.603 -1.42476 845.549 -0.651534 831.502 3.72612C818.954 7.63339 816.381 20.8369 814.873 27.8753C807.626 61.7088 795.754 121.67 787.446 174.237C784.821 192.315 780.319 214.315 776.541 235.933C776.541 235.933 764.658 295.956 764.658 331.195C764.658 384.627 787.584 414.406 841.442 414.406C885.748 414.406 924.412 383.16 948.57 345.195C971.319 307.316 1005.93 179.538 1005.93 179.538C1025.81 178.821 946.159 181.722 964.519 180.84Z" fill="#231F1F"/>
<path d="M1016.22 130.758C1016.22 130.758 1018.11 87.0986 1022.02 69.2205C1023.94 60.4446 1011.52 46.2445 1003.05 47.1941C995.977 47.985 989.1 52.2157 987.504 59.5539C983.517 77.8965 974.418 128.232 974.418 128.232L964.519 180.84C964.519 180.84 954.32 240.017 951.742 266.818C935.163 322.537 900.736 363.661 871.095 363.661C852.937 363.661 842.109 352.883 842.109 320.188C842.109 274.938 764.658 295.956 764.658 331.195C764.658 384.627 787.584 414.406 841.442 414.406C885.748 414.406 924.412 383.16 948.57 345.195C985.687 275.606 1006.82 183.392 1006.82 183.392L1016.22 130.758Z" fill="#231F1F"/>
<path d="M843.665 140.354C865.053 88.9008 845.549 -0.651534 831.502 3.72612C818.954 7.63339 828.882 91.8378 827.374 98.8762C820.127 132.71 815.32 135.315 787.446 174.237C768.983 196.584 747.782 212.284 724.836 216.153C660.32 222.815 650.821 193.315 674.964 151.629C712.602 86.6458 662.778 109.304 638.238 151.881C630.756 164.864 628.798 179.858 628.362 194.582C627.819 212.989 630.82 236.315 654.858 253.532C680.909 272.192 701.78 268.499 721.408 264.675C742.467 260.409 760.762 250.139 776.541 235.933C776.541 235.933 828.506 197.71 843.665 140.354Z" fill="#231F1F"/>
<path d="M867.664 160.355C889.052 108.902 901.353 51.6864 901.353 25.7526C901.353 16.0006 898.381 5.08736 886.691 2.76475C865.603 -1.42476 845.549 -0.651534 831.502 3.72612C818.954 7.63339 834.383 29.3365 832.875 36.3748C825.628 70.2084 852.505 217.711 867.664 160.355Z" fill="#231F1F"/>
<path d="M581.999 371.255C559.461 371.255 544.376 351.831 544.376 313.279C544.376 239.32 570.694 159.752 617.973 159.752C623.291 159.752 628.013 160.463 632.185 162.121C647.07 167.314 657.069 218.816 652.218 252.127C641.969 317.065 613.251 371.255 581.999 371.255ZM724.836 216.153C721.269 146.539 680.765 116.631 624.964 116.631C526.968 116.631 464.508 203.934 464.508 301.924C464.508 381.304 507.82 414.406 570.862 414.406C645.309 414.406 700.71 361.568 721.408 264.675C724.321 247.564 724.821 235.316 724.836 216.153Z" fill="#231F1F"/>
<path d="M428.198 0.00122065C415.168 0.00122065 403.611 0.650963 397.899 1.24189C386.5 2.42084 382.64 13.2489 383.469 23.9064C395.467 178.218 361.502 357.799 322.841 357.799C294.055 357.799 286.038 273.865 286.038 199.204C286.038 155.077 288.557 112.58 289.613 75.0212C290.001 61.0885 284.938 58.4661 274.872 57.243C259.616 55.3908 248.694 55.4055 233.547 58.7601C221.975 61.3237 219.253 70.8199 207.084 99.7525C146.464 243.883 87.9846 359.648 87.9846 359.648C72.5231 243.61 92.3652 131.055 109.27 48.8993C111.605 37.5862 106.21 30.9036 96.9163 31.0653C79.4145 31.371 52.5429 31.9325 40.4183 39.8706C29.0494 47.3117 24.8305 55.2556 21.5494 71.699C2.7834 165.785 -9.42935 283.808 9.44838 375.072C13.5291 394.796 18.1096 399.456 26.4386 404.616C34.7677 409.778 70.5239 414.406 84.389 414.406C100.133 414.406 114.55 410.167 126.543 389.607C151.933 346.077 172.269 302.601 210.688 218.861C214.646 327.97 230.042 413.615 306.706 413.615C408.315 413.615 473.901 159.752 473.901 37.6009C473.901 5.28733 457.881 0.00122065 428.198 0.00122065Z" fill="#231F1F"/>
</svg>
